<svg xmlns="http://www.w3.org/2000/svg" viewBox="0 0 120 120" width="120" height="120">
  <rect width="120" height="120" fill="#ffffff"/>
  <g fill="#000000">
    <rect x="8" y="8" width="28" height="28"/>
    <rect x="84" y="8" width="28" height="28"/>
    <rect x="8" y="84" width="28" height="28"/>
    <rect x="44" y="44" width="12" height="12"/>
    <rect x="60" y="44" width="8" height="8"/>
    <rect x="44" y="60" width="8" height="8"/>
    <rect x="56" y="60" width="16" height="8"/>
    <rect x="44" y="72" width="12" height="12"/>
    <rect x="60" y="76" width="8" height="8"/>
    <rect x="72" y="44" width="8" height="20"/>
    <rect x="84" y="44" width="8" height="8"/>
    <rect x="84" y="60" width="12" height="12"/>
    <rect x="72" y="72" width="20" height="8"/>
    <rect x="72" y="84" width="8" height="12"/>
    <rect x="84" y="92" width="8" height="8"/>
    <rect x="8" y="44" width="8" height="8"/>
    <rect x="20" y="44" width="12" height="8"/>
    <rect x="8" y="56" width="12" height="12"/>
    <rect x="24" y="68" width="8" height="8"/>
    <rect x="8" y="68" width="8" height="16"/>
    <rect x="44" y="8" width="8" height="12"/>
    <rect x="56" y="8" width="12" height="8"/>
    <rect x="72" y="8" width="8" height="8"/>
    <rect x="44" y="24" width="16" height="8"/>
    <rect x="64" y="24" width="8" height="12"/>
    <rect x="44" y="32" width="8" height="8"/>
  </g>
</svg>
